<?xml version="1.0" encoding="utf-8"?>
<!-- Generator: Adobe Illustrator 20.0.0, SVG Export Plug-In . SVG Version: 6.00 Build 0)  -->
<svg version="1.1" id="Layer_1" xmlns="http://www.w3.org/2000/svg" xmlns:xlink="http://www.w3.org/1999/xlink" x="0px" y="0px"
	 viewBox="0 0 400 400" style="enable-background:new 0 0 400 400;" xml:space="preserve">
<style type="text/css">
	.st0{fill:#BF1E2E;}
	.st1{fill:#FFFFFF;stroke:#FFFFFF;stroke-width:6;stroke-linecap:round;stroke-linejoin:round;stroke-miterlimit:10;}
	.st2{fill:#FFFFFF;}
</style>
<g id="Dark_Blue">
	<circle class="st0" cx="200" cy="200" r="200"/>
</g>
<g>
	<path class="st1" d="M158.1,86.5c0,4.1-0.1,8.2,0,12.4c0,1.5-0.5,1.8-1.8,1.8c-20.5,0-41,0-61.4-0.1c-1.8,0-2.2,0.5-2.2,2.2
		c0.1,17.2,0,34.3,0.1,51.5c0,2-0.6,2.4-2.4,2.3c-3.3-0.1-6.5-0.1-9.8,0c-1.5,0.1-1.8-0.5-1.8-1.9c0-22.1,0-44.2,0-66.2
		c0-0.7,0-1.4,0-2C105.2,86.5,131.6,86.5,158.1,86.5z"/>
	<path class="st1" d="M321.2,86.5c0,22.8,0,45.6,0.1,68.4c0,1.4-0.5,1.7-1.8,1.7c-3.3-0.1-6.6-0.1-10,0c-1.8,0.1-2.3-0.5-2.3-2.3
		c0.1-17.1,0-34.2,0-51.3c0-2.5,0-2.6-2.6-2.6c-20.2,0-40.4,0-60.7,0c-1.6,0-2.3-0.3-2.2-2.1c0.1-4,0.1-8,0.1-12
		C268.3,86.5,294.8,86.5,321.2,86.5z"/>
	<path class="st1" d="M241.9,313.5c0-4.2,0-8.5-0.1-12.7c0-1.3,0.7-1.3,1.6-1.3c7.7,0,15.4,0,23.1,0c13,0,25.9,0,38.9,0
		c1.5,0,2-0.3,1.9-1.9c-0.1-10.6,0-21.2-0.1-31.7c0-1.5,0.4-1.9,1.9-1.8c3.4,0.1,6.9,0.1,10.3,0c1.6-0.1,1.9,0.5,1.9,2
		c-0.1,15.8,0,31.6,0,47.4C294.8,313.5,268.3,313.5,241.9,313.5z"/>
	<path class="st1" d="M78.7,313.5c0-15.8,0-31.6,0-47.4c0-1.7,0.5-2.1,2.1-2c3.3,0.1,6.5,0.1,9.8,0c1.7-0.1,2.2,0.5,2.2,2.2
		c-0.1,10.4,0,20.8-0.1,31.2c0,1.7,0.5,2.1,2.2,2.1c20.4-0.1,40.7,0,61.1-0.1c1.8,0,2.3,0.5,2.2,2.2c-0.1,3.9,0,7.9,0,11.8
		C131.6,313.5,105.2,313.5,78.7,313.5z"/>
</g>
<path class="st2" d="M246,209.3c0-0.5,0.1-1.1,0.1-1.6c0-15.1,0-30.1,0-45.2c0-1.4-0.3-2-1.8-1.8c-2,0.1-3.9,0-5.9,0.1
	c-1.1,0-1.3-0.3-1.3-1.4c0-5.9,0.1-11.8,0-17.7c0-1.4,0.4-1.7,1.7-1.7c10.4,0.1,20.8,0,31.2,0c2,0,3.9,0,5.9,0c1,0,1.4,0.2,1.4,1.3
	c0,6-0.1,12.1,0,18.1c0,1.2-0.4,1.4-1.5,1.4c-2.1-0.1-4.2,0-6.3,0c-1,0-1.3,0.3-1.2,1.3c0.1,2.6,0,5.2,0,7.7c0,28.7,0,57.3,0,86
	c0,1.7-0.4,2.1-2.1,2.1c-6.2-0.1-12.4-0.1-18.6,0c-1.4,0-2.2-0.5-2.8-1.7c-12.9-23.6-25.8-47.2-38.7-70.7c-0.4-0.7-0.8-1.4-1.3-2.3
	c-0.5,0.7-0.3,1.2-0.3,1.7c0,17,0,33.9,0,50.9c0,1.4,0.3,1.9,1.8,1.8c2.3-0.1,4.6,0,6.8-0.1c1.1,0,1.5,0.2,1.5,1.4
	c-0.1,5.8,0,11.6,0,17.3c0,1.1-0.2,1.5-1.4,1.5c-13.1,0-26.2,0-39.3,0c-1.1,0-1.4-0.3-1.3-1.4c0-5.8,0-11.7,0-17.5
	c0-1,0.3-1.4,1.3-1.4c2.2,0.1,4.4-0.1,6.6,0.1c1.5,0.1,1.9-0.4,1.9-1.9c-0.1-19.2,0-38.4,0-57.6c0-5.3,0-10.6,0-15.9
	c0-1.2-0.4-1.6-1.6-1.5c-2.3,0.1-4.7,0-7,0.1c-1.1,0-1.3-0.3-1.3-1.4c0-6,0-12.1,0-18.1c0-1,0.3-1.4,1.3-1.4c11.3,0,22.5,0,33.8,0
	c1,0,1.4,0.5,1.8,1.2c10.4,19.6,20.8,39.2,31.3,58.8c1.7,3.1,3.3,6.3,5,9.4C245.8,209.3,245.9,209.3,246,209.3z"/>
<path class="st2" d="M156.1,199.1c0,12,0,24,0,36c0,2.4,0,2.4,2.5,2.4c2.3,0,4.6,0,6.8,0c1,0,1.3,0.3,1.3,1.3c0,5.9,0,11.8,0,17.7
	c0,1.1-0.4,1.3-1.4,1.3c-14.1,0-28.3,0-42.4,0c-1.1,0-1.3-0.4-1.3-1.4c0-5.8,0.1-11.7,0-17.5c0-1.2,0.5-1.4,1.5-1.4
	c2.6,0.1,5.3,0,7.9,0c1.1,0,1.3-0.3,1.3-1.3c0-24.7,0-49.4,0-74.2c0-1.2-0.5-1.4-1.5-1.4c-2.6,0.1-5.3,0-7.9,0c-1,0-1.3-0.3-1.3-1.3
	c0-6,0.1-12.1,0-18.1c0-1.2,0.4-1.4,1.5-1.4c14.1,0,28.2,0,42.2,0c1.1,0,1.5,0.3,1.5,1.4c-0.1,6-0.1,11.9,0,17.9
	c0,1.3-0.4,1.5-1.6,1.5c-2.3-0.1-4.7,0.1-7-0.1c-1.6-0.1-2.1,0.3-2,2C156.2,174.8,156.1,187,156.1,199.1z"/>
</svg>
