<?xml version="1.0" encoding="utf-8"?>
<!-- Generator: Adobe Illustrator 20.0.0, SVG Export Plug-In . SVG Version: 6.00 Build 0)  -->
<svg version="1.1" id="Layer_1" xmlns="http://www.w3.org/2000/svg" xmlns:xlink="http://www.w3.org/1999/xlink" x="0px" y="0px"
	 viewBox="0 0 126.1 102.7" style="enable-background:new 0 0 126.1 102.7;" xml:space="preserve">
<style type="text/css">
	.st0{fill:#FFFFFF;}
	.st1{fill:#BE1E2D;}
</style>
<title>HG-Logo</title>
<g id="Layer_2">
	<g id="Layer_1-2">
		<polygon class="st0" points="126.1,27 72.2,0 62.3,4.9 52.6,0 28.4,12.1 28.4,21.6 19,16.8 0,26.3 0,92.7 3,94.2 3,94.2 18,101.7 
			37,92.8 37,83 51.2,90.1 67.4,82.4 106.5,102 108,102.7 126.1,93.7 126.1,51.1 121,48.6 126.1,46.1 		"/>
		<polygon class="st1" points="73.1,76.8 67.8,10.7 52.6,3 49.7,4.9 49.7,67.6 34.3,75 34.3,27.5 19,19.9 16.1,21.3 16.1,84.6 
			2.7,91.1 18.1,98.8 34.3,91.1 34.3,78.7 51.3,87.1 		"/>
		<polygon class="st0" points="19,83.3 19,56.3 31.1,50.2 31.1,77.2 52.6,66.5 52.6,2.5 31.1,13.7 31.1,31.5 19,37.6 19,19.8 
			2.7,27.9 2.7,91.1 3,91.2 		"/>
		<path class="st1" d="M123.4,28.6L72.2,3l-15.4,7.7l3.8,1.9l-2.4,5.2L63,68.9l41.5,21.3l3.5,9.5l15.4-7.7V74.8h0.1h-0.1
			 M123.4,52.8l-8.4-4.2l8.4-4.2"/>
		<polygon class="st0" points="108,36.2 56.8,10.7 56.8,74.2 108,99.7 108,60.4 77.3,45 77.5,60.4 94.6,68.9 94.6,77.4 70.1,65.1 
			70.1,33.2 108,52.1 		"/>
	</g>
</g>
</svg>
